<?xml version="1.0" standalone="no"?><!DOCTYPE svg PUBLIC "-//W3C//DTD SVG 1.1//EN" "http://www.w3.org/Graphics/SVG/1.1/DTD/svg11.dtd"><svg t="1634527528403" class="icon" viewBox="0 0 1024 1024" version="1.1" xmlns="http://www.w3.org/2000/svg" p-id="4115" xmlns:xlink="http://www.w3.org/1999/xlink" width="16" height="16"><defs><style type="text/css"></style></defs><path d="M512 128C586.24 128 655.36 149.333333 714.24 185.6 741.546667 150.613333 784.213333 128 832 128 914.346667 128 981.333333 194.986667 981.333333 277.333333 981.333333 341.333333 940.8 395.946667 884.053333 417.28 891.733333 448 896 479.146667 896 512 896 724.053333 724.053333 896 512 896 299.946667 896 128 724.053333 128 512 128 479.146667 132.266667 448 139.946667 417.28 83.2 395.946667 42.666667 341.333333 42.666667 277.333333 42.666667 194.986667 109.653333 128 192 128 239.786667 128 282.453333 150.613333 309.76 185.6 368.64 149.333333 437.76 128 512 128M512 213.333333C346.88 213.333333 213.333333 346.88 213.333333 512 213.333333 677.12 346.88 810.666667 512 810.666667 677.12 810.666667 810.666667 677.12 810.666667 512 810.666667 346.88 677.12 213.333333 512 213.333333M690.773333 439.466667C706.133333 496.213333 686.08 550.826667 646.4 561.493333 606.293333 572.586667 561.92 535.04 546.56 477.866667 531.2 421.12 551.253333 366.506667 590.933333 355.84 631.04 345.173333 675.413333 382.293333 690.773333 439.466667M333.226667 439.466667C348.586667 382.293333 392.96 345.173333 433.066667 355.84 472.746667 366.506667 492.8 421.12 477.44 477.866667 462.08 535.04 417.706667 572.586667 377.6 561.493333 337.92 550.826667 317.866667 496.213333 333.226667 439.466667M512 597.333333C537.6 597.333333 560.213333 605.44 576 618.666667L533.333333 661.333333C533.333333 679.253333 547.84 693.333333 565.333333 693.333333 582.826667 693.333333 597.333333 678.826667 597.333333 661.333333 597.333333 649.386667 606.72 640 618.666667 640 630.613333 640 640 649.386667 640 661.333333 640 702.72 606.72 736 565.333333 736 544.426667 736 525.653333 727.466667 512 713.386667 498.346667 727.466667 479.573333 736 458.666667 736 417.28 736 384 702.72 384 661.333333 384 649.386667 393.386667 640 405.333333 640 417.28 640 426.666667 649.386667 426.666667 661.333333 426.666667 678.826667 441.173333 693.333333 458.666667 693.333333 476.16 693.333333 490.666667 678.826667 490.666667 661.333333L448 618.666667C463.786667 605.44 486.4 597.333333 512 597.333333Z" p-id="4116"></path></svg>